<?xml version="1.0" encoding="utf-8"?>
<!-- Generator: Adobe Illustrator 17.0.0, SVG Export Plug-In . SVG Version: 6.00 Build 0)  -->
<!DOCTYPE svg PUBLIC "-//W3C//DTD SVG 1.1//EN" "http://www.w3.org/Graphics/SVG/1.1/DTD/svg11.dtd">
<svg version="1.1" id="Livello_1" xmlns="http://www.w3.org/2000/svg" xmlns:xlink="http://www.w3.org/1999/xlink" x="0px" y="0px"
	 width="100px" height="100px" viewBox="0 0 100 100" enable-background="new 0 0 100 100" xml:space="preserve">
<circle opacity="0.35" enable-background="new    " cx="51.8" cy="51.8" r="35.2"/>
<circle fill="#F2F2F2" cx="50.2" cy="50.2" r="35.2"/>
<path fill="#2785BD" d="M50.2,20.2c-16.569,0-30,13.431-30,30s13.431,30,30,30s30-13.431,30-30S66.769,20.2,50.2,20.2z"/>
<path fill="#40396E" d="M50.2,81.4C32.996,81.4,19,67.404,19,50.2S32.996,19,50.2,19s31.2,13.996,31.2,31.2S67.404,81.4,50.2,81.4z
	 M50.2,21.4c-15.881,0-28.8,12.919-28.8,28.8S34.319,79,50.2,79S79,66.081,79,50.2S66.081,21.4,50.2,21.4z"/>
<g>
	<path fill="#F2F2F2" d="M50.198,24.675c-14.082,0-25.532,11.451-25.532,25.525S36.121,75.728,50.2,75.728
		c14.081,0,25.534-11.454,25.534-25.528S64.281,24.675,50.198,24.675z M27.511,50.2c0-3.296,0.705-6.411,1.962-9.235l10.826,29.656
		C32.73,66.942,27.511,59.186,27.511,50.2z M50.202,72.89c-2.226,0-4.374-0.321-6.41-0.925l6.807-19.786l6.974,19.112
		c0.047,0.109,0.11,0.211,0.167,0.312C55.376,72.43,52.841,72.89,50.202,72.89z M53.171,38.976c1.364-0.066,2.598-0.215,2.598-0.215
		c1.221-0.147,1.074-1.947-0.147-1.866c0,0-3.671,0.284-6.047,0.284c-2.225,0-5.98-0.284-5.98-0.284
		c-1.219-0.084-1.362,1.787-0.139,1.866c0,0,1.16,0.15,2.381,0.215l3.691,10.278l-4.963,14.892l-8.411-25.212
		c1.367-0.066,2.592-0.215,2.592-0.215c1.228-0.147,1.079-1.947-0.14-1.866c0,0-3.68,0.284-6.047,0.284
		c-0.431,0-0.543,0.05-0.866-0.055c4.111-5.79,10.867-9.571,18.51-9.571c5.91,0,11.288,2.246,15.322,5.954
		c-0.101-0.003-0.191-0.011-0.292-0.011c-2.226,0-4.313,1.95-4.313,4.027c0,1.865,1.082,3.436,2.235,5.321
		c0.861,1.506,2.368,3.453,2.368,6.257c0,1.95-0.574,4.389-1.729,7.338l-2.267,7.553L53.171,38.976z M61.612,69.82l6.927-20.046
		c1.294-3.242,1.729-5.827,1.729-8.136c0-0.831-0.053-1.61-0.153-2.333c1.767,3.242,2.775,6.95,2.775,10.894
		C72.89,58.57,68.359,65.889,61.612,69.82z"/>
</g>
</svg>
